<svg version="1.1" id="Layer_1" xmlns="http://www.w3.org/2000/svg" xmlns:xlink="http://www.w3.org/1999/xlink" x="0px" y="0px"
	 width="100%" viewBox="0 0 1024 1024" enable-background="new 0 0 1024 1024" xml:space="preserve">
<path fill="#1C2F52" opacity="1.000000" stroke="none"
	d="
M1.000004,834.000000
	C1.000000,620.639771 1.000000,407.279602 1.392403,193.410095
	C2.174183,192.225830 2.831721,191.582001 2.914173,190.871429
	C5.856426,165.515091 13.949074,141.702759 25.629356,119.214752
	C38.506897,94.421669 55.517895,72.752426 76.868027,54.459522
	C91.195999,42.183243 106.600754,31.628420 123.463387,23.372072
	C142.737106,13.935194 162.951096,7.080563 184.294327,3.853541
	C186.946075,3.452605 189.435410,1.977412 192.000000,0.999999
	C405.360199,1.000000 618.720398,1.000000 832.589905,1.392412
	C833.774170,2.174198 834.418030,2.831739 835.128601,2.914183
	C860.484924,5.856445 884.297119,13.949281 906.785156,25.629438
	C931.578369,38.506893 953.247559,55.517918 971.540466,76.868011
	C983.816772,91.195969 994.371521,106.600708 1002.627869,123.463356
	C1012.064758,142.737076 1018.919312,162.951065 1022.146240,184.294327
	C1022.547180,186.946091 1024.022583,189.435410 1025.000000,192.000000
	C1025.000000,405.360199 1025.000000,618.720398 1024.607666,832.589844
	C1023.825806,833.774170 1023.168213,834.418091 1023.085754,835.128723
	C1020.143738,860.485107 1012.050781,884.297302 1000.370544,906.785217
	C987.492981,931.578186 970.482178,953.247620 949.131958,971.540527
	C934.803833,983.816650 919.399292,994.371704 902.536499,1002.627930
	C883.262817,1012.064575 863.048950,1018.919495 841.705688,1022.146240
	C839.053955,1022.547180 836.564575,1024.022583 834.000000,1025.000000
	C620.639771,1025.000000 407.279602,1025.000000 193.410095,1024.607666
	C192.225815,1023.825867 191.581940,1023.168274 190.871338,1023.085938
	C165.514969,1020.143738 141.702637,1012.050964 119.214615,1000.370667
	C94.421524,987.493225 72.752411,970.481995 54.459511,949.131958
	C42.183201,934.804016 31.628405,919.399231 23.372091,902.536621
	C13.935222,883.262878 7.080575,863.048889 3.853564,841.705627
	C3.452633,839.053894 1.977425,836.564575 1.000004,834.000000
M156.004105,574.537109
	C161.028412,596.656982 165.166870,619.024841 171.274445,640.841492
	C181.724594,678.170105 197.345108,713.420593 217.292801,746.727600
	C234.189758,774.940613 253.860199,801.046143 276.338501,825.019958
	C309.696320,860.597046 347.767303,890.322876 389.468719,915.473450
	C427.753876,938.563660 468.194153,957.146667 510.051941,972.710938
	C511.693939,973.321472 513.995422,973.267639 515.629822,972.618042
	C531.777588,966.199707 547.960693,959.848816 563.920776,952.983765
	C605.288574,935.189941 644.105774,912.852661 680.395813,886.208374
	C728.361084,850.992065 769.150696,808.924316 801.319702,758.684814
	C818.173035,732.364380 832.198425,704.591187 843.294678,675.428772
	C867.352722,612.200745 877.519348,546.390320 877.751038,479.006104
	C878.080017,383.349762 877.834534,287.691406 877.834534,192.033936
	C877.834534,190.222275 877.834534,188.410629 877.834534,186.562149
	C868.765076,183.264694 860.020752,180.128174 851.306458,176.910172
	C796.009827,156.490082 740.735901,136.008392 685.423157,115.632126
	C629.483032,95.024734 573.491150,74.557350 517.585510,53.857033
	C514.354736,52.660767 511.765930,52.568207 508.637482,53.742535
	C486.182495,62.171371 463.698547,70.524467 441.182251,78.788345
	C398.014801,94.631630 354.796143,110.335625 311.642212,126.215668
	C259.174316,145.523148 206.770660,165.005402 154.274292,184.234818
	C149.815613,185.868027 147.996597,187.672791 148.012909,192.859634
	C148.328064,293.006348 147.881821,393.158630 148.826935,493.298126
	C149.079956,520.108032 153.416306,546.879456 156.004105,574.537109
z"/>
<path fill="#000000" opacity="1.000000" stroke="none"
	d="
M191.531342,0.999999
	C189.435410,1.977412 186.946075,3.452605 184.294327,3.853541
	C162.951096,7.080563 142.737106,13.935194 123.463387,23.372072
	C106.600754,31.628420 91.195999,42.183243 76.868027,54.459522
	C55.517895,72.752426 38.506897,94.421669 25.629356,119.214752
	C13.949074,141.702759 5.856426,165.515091 2.914173,190.871429
	C2.831721,191.582001 2.174183,192.225830 1.392403,192.950394
	C1.000000,129.073166 1.000000,65.146324 1.000000,1.000000
	C64.354057,1.000000 127.708374,1.000000 191.531342,0.999999
z"/>
<path fill="#000000" opacity="1.000000" stroke="none"
	d="
M1.000004,834.468628
	C1.977425,836.564575 3.452633,839.053894 3.853564,841.705627
	C7.080575,863.048889 13.935222,883.262878 23.372091,902.536621
	C31.628405,919.399231 42.183201,934.804016 54.459511,949.131958
	C72.752411,970.481995 94.421524,987.493225 119.214615,1000.370667
	C141.702637,1012.050964 165.514969,1020.143738 190.871338,1023.085938
	C191.581940,1023.168274 192.225815,1023.825867 192.950409,1024.607666
	C129.073181,1025.000000 65.146347,1025.000000 1.000000,1025.000000
	C1.000000,961.645935 1.000000,898.291626 1.000004,834.468628
z"/>
<path fill="#000000" opacity="1.000000" stroke="none"
	d="
M834.468628,1025.000000
	C836.564575,1024.022583 839.053955,1022.547180 841.705688,1022.146240
	C863.048950,1018.919495 883.262817,1012.064575 902.536499,1002.627930
	C919.399292,994.371704 934.803833,983.816650 949.131958,971.540527
	C970.482178,953.247620 987.492981,931.578186 1000.370544,906.785217
	C1012.050781,884.297302 1020.143738,860.485107 1023.085754,835.128723
	C1023.168213,834.418091 1023.825806,833.774170 1024.607666,833.049561
	C1025.000000,896.926819 1025.000000,960.853699 1025.000000,1025.000000
	C961.645935,1025.000000 898.291626,1025.000000 834.468628,1025.000000
z"/>
<path fill="#000000" opacity="1.000000" stroke="none"
	d="
M1025.000000,191.531342
	C1024.022583,189.435410 1022.547180,186.946091 1022.146240,184.294327
	C1018.919312,162.951065 1012.064758,142.737076 1002.627869,123.463356
	C994.371521,106.600708 983.816772,91.195969 971.540466,76.868011
	C953.247559,55.517918 931.578369,38.506893 906.785156,25.629438
	C884.297119,13.949281 860.484924,5.856445 835.128601,2.914183
	C834.418030,2.831739 833.774170,2.174198 833.049622,1.392412
	C896.926819,1.000000 960.853699,1.000000 1025.000000,1.000000
	C1025.000000,64.354057 1025.000000,127.708374 1025.000000,191.531342
z"/>
<path fill="#FFFFFF" opacity="1.000000" stroke="none"
	d="
M155.941101,574.102783
	C153.416306,546.879456 149.079956,520.108032 148.826935,493.298126
	C147.881821,393.158630 148.328064,293.006348 148.012909,192.859634
	C147.996597,187.672791 149.815613,185.868027 154.274292,184.234818
	C206.770660,165.005402 259.174316,145.523148 311.642212,126.215668
	C354.796143,110.335625 398.014801,94.631630 441.182251,78.788345
	C463.698547,70.524467 486.182495,62.171371 508.637482,53.742535
	C511.765930,52.568207 514.354736,52.660767 517.585510,53.857033
	C573.491150,74.557350 629.483032,95.024734 685.423157,115.632126
	C740.735901,136.008392 796.009827,156.490082 851.306458,176.910172
	C860.020752,180.128174 868.765076,183.264694 877.834534,186.562149
	C877.834534,188.410629 877.834534,190.222275 877.834534,192.033936
	C877.834534,287.691406 878.080017,383.349762 877.751038,479.006104
	C877.519348,546.390320 867.352722,612.200745 843.294678,675.428772
	C832.198425,704.591187 818.173035,732.364380 801.319702,758.684814
	C769.150696,808.924316 728.361084,850.992065 680.395813,886.208374
	C644.105774,912.852661 605.288574,935.189941 563.920776,952.983765
	C547.960693,959.848816 531.777588,966.199707 515.629822,972.618042
	C513.995422,973.267639 511.693939,973.321472 510.051941,972.710938
	C468.194153,957.146667 427.753876,938.563660 389.468719,915.473450
	C347.767303,890.322876 309.696320,860.597046 276.338501,825.019958
	C253.860199,801.046143 234.189758,774.940613 217.292801,746.727600
	C197.345108,713.420593 181.724594,678.170105 171.274445,640.841492
	C165.166870,619.024841 161.028412,596.656982 155.941101,574.102783
M719.974609,343.206757
	C719.086060,341.806702 718.298462,340.329376 717.294189,339.017914
	C688.481140,301.388428 652.213684,273.527283 608.181030,255.870422
	C586.753235,247.277985 564.633057,241.443954 541.205261,238.677216
	C538.888184,227.899704 532.534912,220.554901 522.151428,216.967300
	C508.505859,212.252609 489.542419,218.037888 483.531769,239.192062
	C465.279297,241.252609 447.422180,245.188721 430.090576,251.220535
	C383.159332,267.553772 343.855560,294.912933 312.822327,333.772736
	C279.434174,375.581390 260.929749,423.439911 257.233368,476.720337
	C255.253952,505.252136 257.884735,533.556824 265.772156,561.244568
	C286.194092,632.933105 329.280975,686.581360 395.074707,721.242981
	C444.242340,747.145569 496.867401,755.492371 551.940125,747.071411
	C595.285461,740.443604 634.336670,723.619934 669.180481,697.045654
	C671.731201,695.100281 673.790344,692.510437 676.616821,689.781616
	C680.698792,686.158203 684.780701,682.534790 689.564514,678.945984
	C693.925537,674.645569 698.497620,670.537354 702.614746,666.015015
	C742.661255,622.027893 764.458374,570.055176 768.757019,510.970551
	C771.600281,471.890747 765.389832,433.922394 750.558350,397.532379
	C748.782104,393.174316 746.153809,389.163605 744.119080,384.307983
	C751.844055,371.415771 750.419006,358.838989 740.440063,350.117828
	C734.518433,344.942566 727.510803,343.756744 719.974609,343.206757
z"/>
<path fill="#BCC2CC" opacity="1.000000" stroke="none"
	d="
M676.078064,690.220276
	C673.790344,692.510437 671.731201,695.100281 669.180481,697.045654
	C634.336670,723.619934 595.285461,740.443604 551.940125,747.071411
	C496.867401,755.492371 444.242340,747.145569 395.074707,721.242981
	C329.280975,686.581360 286.194092,632.933105 265.772156,561.244568
	C257.884735,533.556824 255.253952,505.252136 257.233368,476.720337
	C260.929749,423.439911 279.434174,375.581390 312.822327,333.772736
	C343.855560,294.912933 383.159332,267.553772 430.090576,251.220535
	C447.422180,245.188721 465.279297,241.252609 484.012573,239.677155
	C484.747772,244.374649 485.002197,248.587067 484.799500,252.819794
	C478.261444,253.721603 472.116882,254.294556 466.109344,255.532379
	C407.794403,267.548035 359.637848,296.526337 322.593506,343.151672
	C288.775574,385.716125 271.782684,434.634613 269.631927,488.933319
	C262.975647,489.086609 262.788239,489.442322 263.022827,495.347504
	C263.243500,500.902527 267.390564,498.268768 269.993774,499.430939
	C270.401428,505.847839 270.537598,511.822144 271.177032,517.742126
	C274.425995,547.821228 282.670105,576.464172 296.329468,603.493042
	C297.167664,605.151611 298.677246,606.470886 299.956543,608.366211
	C299.756165,617.415466 304.211548,623.323853 311.147491,628.123169
	C311.579071,628.556824 311.877411,628.750610 312.088013,628.847290
	C312.000275,628.750122 312.160339,628.542969 312.128540,628.918762
	C312.872650,630.742920 313.444122,632.355957 314.457001,633.613403
	C321.961823,642.930359 328.998138,652.705750 337.221069,661.348206
	C364.650604,690.176941 397.360687,710.970764 435.059601,723.873474
	C458.683716,731.958923 483.077423,735.631042 507.944641,737.354980
	C507.527161,741.714417 509.020111,743.122009 513.188477,743.247559
	C518.448242,743.406067 518.037170,740.227417 518.545959,736.891235
	C523.449463,736.569580 527.906128,736.355835 532.347168,735.964417
	C557.007141,733.790955 580.866943,728.270264 603.885498,719.068787
	C622.683228,711.554443 640.016968,701.454590 656.955322,689.914551
	C663.535278,692.304321 669.802124,691.518127 676.078064,690.220276
z"/>
<path fill="#BCC2CC" opacity="1.000000" stroke="none"
	d="
M743.920410,384.991882
	C746.153809,389.163605 748.782104,393.174316 750.558350,397.532379
	C765.389832,433.922394 771.600281,471.890747 768.757019,510.970551
	C764.458374,570.055176 742.661255,622.027893 702.614746,666.015015
	C698.497620,670.537354 693.925537,674.645569 689.229370,678.545593
	C691.906311,671.571594 692.293579,664.842102 690.438721,657.962769
	C696.193665,651.959778 702.092224,646.321289 706.931824,639.886475
	C738.299316,598.179810 754.101868,550.966431 756.480591,498.954132
	C763.054321,498.843231 763.305603,498.434631 762.966187,492.481567
	C762.651978,486.970123 758.461243,489.704529 755.921082,488.468628
	C754.761169,476.333679 754.078491,464.574768 752.340332,452.974060
	C749.178955,431.874298 742.255066,411.826050 734.193542,392.047668
	C737.628052,389.558167 740.774231,387.275024 743.920410,384.991882
z"/>
<path fill="#1E3053" opacity="1.000000" stroke="none"
	d="
M485.256622,252.799469
	C485.002197,248.587067 484.747772,244.374649 484.443420,239.734802
	C489.542419,218.037888 508.505859,212.252609 522.151428,216.967300
	C532.534912,220.554901 538.888184,227.899704 541.356323,239.406891
	C541.675171,242.090225 541.843018,244.043884 541.887573,246.360886
	C541.421814,248.753677 541.079285,250.783142 540.519531,253.086395
	C536.555664,264.116943 528.608582,270.061401 517.520752,272.855316
	C515.725464,272.945282 514.345154,273.062927 512.560486,273.111145
	C510.792389,272.988434 509.428650,272.935150 507.758545,272.680511
	C496.357300,270.088165 489.327820,263.112061 485.256622,252.799469
z"/>
<path fill="#BCC2CC" opacity="1.000000" stroke="none"
	d="
M542.010864,245.997543
	C541.843018,244.043884 541.675171,242.090225 541.552307,239.719269
	C564.633057,241.443954 586.753235,247.277985 608.181030,255.870422
	C652.213684,273.527283 688.481140,301.388428 717.294189,339.017914
	C718.298462,340.329376 719.086060,341.806702 719.717896,343.783813
	C715.776794,346.022491 712.092468,347.684113 708.162354,349.070190
	C697.051514,334.449280 685.134644,321.038513 671.162537,309.669006
	C661.398438,301.723663 651.086304,294.451813 641.058350,286.540344
	C643.492004,281.791870 641.710571,279.229523 637.545410,277.237701
	C628.997009,273.149780 620.708008,268.500031 612.067017,264.628876
	C589.747864,254.630035 566.125366,249.344345 542.010864,245.997543
z"/>
<path fill="#1E3154" opacity="1.000000" stroke="none"
	d="
M708.408142,349.345734
	C712.092468,347.684113 715.776794,346.022491 719.748413,344.128784
	C727.510803,343.756744 734.518433,344.942566 740.440063,350.117828
	C750.419006,358.838989 751.844055,371.415771 744.019775,384.649933
	C740.774231,387.275024 737.628052,389.558167 733.815186,392.079865
	C716.490906,397.237488 701.789307,388.485443 699.429077,372.032715
	C698.115540,362.876648 702.025879,355.568329 708.408142,349.345734
z"/>
<path fill="#1E3154" opacity="1.000000" stroke="none"
	d="
M690.092651,657.958984
	C692.293579,664.842102 691.906311,671.571594 688.878418,678.528320
	C684.780701,682.534790 680.698792,686.158203 676.347412,690.000977
	C669.802124,691.518127 663.535278,692.304321 656.756348,689.604919
	C644.346741,682.687378 639.219788,671.544128 642.611084,659.811829
	C645.491882,649.845642 654.144043,642.627075 664.148071,641.843262
	C675.883301,640.923767 684.488647,646.269104 690.092651,657.958984
z"/>
<path fill="#FFFFFF" opacity="1.000000" stroke="none"
	d="
M484.799500,252.819794
	C489.327820,263.112061 496.357300,270.088165 507.763550,273.156921
	C508.042023,287.191132 508.009125,300.547546 507.599854,314.093872
	C501.311951,314.821381 495.349579,315.033020 489.496704,315.946381
	C422.147644,326.456726 374.703033,363.083160 347.145813,425.296814
	C338.229675,445.426117 334.295258,466.823608 333.036072,488.845093
	C311.770508,488.903076 290.928375,488.909119 270.075287,488.914001
	C270.064362,488.912811 270.077881,488.915619 270.077881,488.915619
	C271.782684,434.634613 288.775574,385.716125 322.593506,343.151672
	C359.637848,296.526337 407.794403,267.548035 466.109344,255.532379
	C472.116882,254.294556 478.261444,253.721603 484.799500,252.819794
z"/>
<path fill="#FEFFFF" opacity="1.000000" stroke="none"
	d="
M299.874420,607.948059
	C298.677246,606.470886 297.167664,605.151611 296.329468,603.493042
	C282.670105,576.464172 274.425995,547.821228 271.177032,517.742126
	C270.537598,511.822144 270.401428,505.847839 270.008423,499.438232
	C269.983673,498.977875 269.966095,498.960693 270.437134,498.939026
	C291.777191,498.966187 312.646179,499.014984 333.599609,499.520172
	C334.078247,505.118805 334.244537,510.290405 334.901978,515.398743
	C341.273529,564.905029 364.133972,605.214661 403.401093,635.888367
	C434.006989,659.796204 469.126526,671.878357 507.957062,673.748169
	C507.964264,695.097412 507.935974,716.001404 507.903198,736.917480
	C507.898712,736.929626 507.908447,736.917236 507.908447,736.917236
	C483.077423,735.631042 458.683716,731.958923 435.059601,723.873474
	C397.360687,710.970764 364.650604,690.176941 337.221069,661.348206
	C328.998138,652.705750 321.961823,642.930359 314.457001,633.613403
	C313.444122,632.355957 312.872650,630.742920 312.549927,628.961731
	C323.581116,631.701233 332.391083,629.203918 337.983887,621.547852
	C343.277283,614.301636 343.494812,604.708557 338.535065,597.242065
	C333.735657,590.016907 324.623474,586.378174 316.309387,588.366821
	C307.032959,590.585693 301.128235,597.620789 299.874420,607.948059
z"/>
<path fill="#FFFFFF" opacity="1.000000" stroke="none"
	d="
M690.438721,657.962769
	C684.488647,646.269104 675.883301,640.923767 664.148071,641.843262
	C654.144043,642.627075 645.491882,649.845642 642.611084,659.811829
	C639.219788,671.544128 644.346741,682.687378 656.386780,689.630249
	C640.016968,701.454590 622.683228,711.554443 603.885498,719.068787
	C580.866943,728.270264 557.007141,733.790955 532.347168,735.964417
	C527.906128,736.355835 523.449463,736.569580 518.550659,736.897095
	C518.101257,736.928894 518.092285,736.905029 518.062195,736.444641
	C518.042725,715.093262 518.053406,694.202209 518.519409,673.242615
	C523.620239,672.829590 528.288879,672.675415 532.907654,672.111633
	C585.709045,665.666565 628.002380,640.974365 659.102417,597.925110
	C680.312012,568.566406 691.641052,535.534790 692.269409,498.961243
	C692.430603,498.858307 692.721497,498.609924 693.203125,498.675354
	C714.467224,498.814850 735.249756,498.888977 756.024292,498.972260
	C756.016357,498.981415 756.045471,498.963409 756.045471,498.963409
	C754.101868,550.966431 738.299316,598.179810 706.931824,639.886475
	C702.092224,646.321289 696.193665,651.959778 690.438721,657.962769
z"/>
<path fill="#1E3053" opacity="1.000000" stroke="none"
	d="
M299.956543,608.366211
	C301.128235,597.620789 307.032959,590.585693 316.309387,588.366821
	C324.623474,586.378174 333.735657,590.016907 338.535065,597.242065
	C343.494812,604.708557 343.277283,614.301636 337.983887,621.547852
	C332.391083,629.203918 323.581116,631.701233 312.581696,628.585938
	C312.160339,628.542969 312.000275,628.750122 312.115540,628.521423
	C311.825287,628.156250 311.419800,628.019775 311.014282,627.883301
	C304.211548,623.323853 299.756165,617.415466 299.956543,608.366211
z"/>
<path fill="#909AAB" opacity="1.000000" stroke="none"
	d="
M269.969025,498.970581
	C267.390564,498.268768 263.243500,500.902527 263.022827,495.347504
	C262.788239,489.442322 262.975647,489.086609 269.631927,488.933319
	C270.077881,488.915619 270.064362,488.912811 270.066803,489.374146
	C270.034851,492.877197 270.000488,495.918945 269.966095,498.960693
	C269.966095,498.960693 269.983673,498.977875 269.969025,498.970581
z"/>
<path fill="#909AAB" opacity="1.000000" stroke="none"
	d="
M518.096558,736.922974
	C518.037170,740.227417 518.448242,743.406067 513.188477,743.247559
	C509.020111,743.122009 507.527161,741.714417 507.944641,737.354980
	C507.908447,736.917236 507.898712,736.929626 508.366699,736.930786
	C511.920563,736.922974 515.006409,736.914001 518.092285,736.905029
	C518.092285,736.905029 518.101257,736.928894 518.096558,736.922974
z"/>
<path fill="#FEFFFF" opacity="1.000000" stroke="none"
	d="
M311.147491,628.123169
	C311.419800,628.019775 311.825287,628.156250 312.203278,628.618530
	C311.877411,628.750610 311.579071,628.556824 311.147491,628.123169
z"/>
<path fill="#FEFFFF" opacity="1.000000" stroke="none"
	d="
M708.162354,349.070190
	C702.025879,355.568329 698.115540,362.876648 699.429077,372.032715
	C701.789307,388.485443 716.490906,397.237488 733.526794,392.286224
	C742.255066,411.826050 749.178955,431.874298 752.340332,452.974060
	C754.078491,464.574768 754.761169,476.333679 755.926636,488.466034
	C755.933655,488.910828 755.912354,488.914581 755.450500,488.927948
	C734.286438,489.005585 713.584167,489.069824 692.721191,489.056549
	C692.560364,488.979034 692.223572,488.860779 692.236572,488.403870
	C692.102478,484.119904 692.204102,480.264496 691.770569,476.470184
	C685.969666,425.697845 663.363159,384.117493 623.327881,352.230530
	C618.437439,348.335419 612.860901,345.301788 607.477295,341.594910
	C607.154480,340.973450 606.956665,340.626007 606.959473,339.975098
	C615.326111,326.376587 623.526062,313.102234 631.638123,299.774384
	C634.209839,295.549072 636.547119,291.181030 639.329468,286.893555
	C640.117737,286.898956 640.568359,286.889038 641.018921,286.879150
	C651.086304,294.451813 661.398438,301.723663 671.162537,309.669006
	C685.134644,321.038513 697.051514,334.449280 708.162354,349.070190
z"/>
<path fill="#909AAB" opacity="1.000000" stroke="none"
	d="
M755.928101,488.913422
	C758.461243,489.704529 762.651978,486.970123 762.966187,492.481567
	C763.305603,498.434631 763.054321,498.843231 756.480591,498.954132
	C756.045471,498.963409 756.016357,498.981415 756.019531,498.519440
	C755.985901,495.009827 755.949158,491.962219 755.912354,488.914581
	C755.912354,488.914581 755.933655,488.910828 755.928101,488.913422
z"/>
<path fill="#DBDEE3" opacity="1.000000" stroke="none"
	d="
M638.991699,286.878296
	C636.547119,291.181030 634.209839,295.549072 631.638123,299.774384
	C623.526062,313.102234 615.326111,326.376587 606.626465,339.870850
	C594.323120,334.655579 582.768005,328.696381 570.732300,323.957916
	C553.869080,317.318878 535.944275,315.386871 517.975891,313.574341
	C517.952393,299.696350 517.944031,286.289673 517.935669,272.883026
	C528.608582,270.061401 536.555664,264.116943 540.977478,253.111237
	C543.147278,252.943893 544.659851,252.905762 546.134033,253.124985
	C568.767395,256.490448 590.762207,262.252014 611.531250,271.932953
	C620.958557,276.327271 629.854614,281.861267 638.991699,286.878296
z"/>
<path fill="#A3ABB9" opacity="1.000000" stroke="none"
	d="
M639.329468,286.893555
	C629.854614,281.861267 620.958557,276.327271 611.531250,271.932953
	C590.762207,262.252014 568.767395,256.490448 546.134033,253.124985
	C544.659851,252.905762 543.147278,252.943893 541.194702,252.837448
	C541.079285,250.783142 541.421814,248.753677 541.887573,246.360886
	C566.125366,249.344345 589.747864,254.630035 612.067017,264.628876
	C620.708008,268.500031 628.997009,273.149780 637.545410,277.237701
	C641.710571,279.229523 643.492004,281.791870 641.058350,286.540344
	C640.568359,286.889038 640.117737,286.898956 639.329468,286.893555
z"/>
<path fill="#A5ADBA" opacity="1.000000" stroke="none"
	d="
M517.520752,272.855316
	C517.944031,286.289673 517.952393,299.696350 517.950684,313.719604
	C517.940613,314.336212 517.856445,314.619110 517.474976,314.460938
	C515.726440,314.196655 514.359375,314.090546 512.989075,313.516754
	C512.978882,299.759583 512.971863,286.470093 512.964844,273.180603
	C514.345154,273.062927 515.725464,272.945282 517.520752,272.855316
z"/>
<path fill="#BFC4CE" opacity="1.000000" stroke="none"
	d="
M512.560486,273.111145
	C512.971863,286.470093 512.978882,299.759583 512.586914,313.582947
	C510.843079,314.257507 509.498260,314.398193 508.107574,314.380615
	C508.061676,314.222321 507.976257,313.903992 507.976257,313.903992
	C508.009125,300.547546 508.042023,287.191132 508.069916,273.358276
	C509.428650,272.935150 510.792389,272.988434 512.560486,273.111145
z"/>
<path fill="#9BA3B2" opacity="1.000000" stroke="none"
	d="
M333.459503,488.793152
	C334.295258,466.823608 338.229675,445.426117 347.145813,425.296814
	C374.703033,363.083160 422.147644,326.456726 489.496704,315.946381
	C495.349579,315.033020 501.311951,314.821381 507.599854,314.093872
	C507.976257,313.903992 508.061676,314.222321 508.092163,314.799072
	C508.120483,319.503693 508.118317,323.631561 507.651489,327.816864
	C419.535583,331.109558 348.725098,402.334259 346.530731,488.997070
	C342.064819,488.992950 338.061371,488.996857 333.909546,488.945251
	C333.761230,488.889709 333.459503,488.793152 333.459503,488.793152
z"/>
<path fill="#BEC3CD" opacity="1.000000" stroke="none"
	d="
M270.437134,498.939026
	C270.000488,495.918945 270.034851,492.877197 270.077728,489.375305
	C290.928375,488.909119 311.770508,488.903076 333.036072,488.845093
	C333.459503,488.793152 333.761230,488.889709 333.814545,489.324463
	C333.981354,492.832581 334.094879,495.905945 334.035980,499.007996
	C333.863586,499.036682 333.515167,499.063782 333.515167,499.063782
	C312.646179,499.014984 291.777191,498.966187 270.437134,498.939026
z"/>
<path fill="#9BA3B2" opacity="1.000000" stroke="none"
	d="
M507.921570,673.302979
	C469.126526,671.878357 434.006989,659.796204 403.401093,635.888367
	C364.133972,605.214661 341.273529,564.905029 334.901978,515.398743
	C334.244537,510.290405 334.078247,505.118805 333.599609,499.520172
	C333.515167,499.063782 333.863586,499.036682 334.479279,499.007202
	C339.029907,498.965515 342.964874,498.953369 346.941406,499.390961
	C350.594238,586.478455 418.704224,656.316284 507.988770,660.440186
	C508.008057,664.854004 508.019226,668.804382 507.998291,672.890869
	C507.966156,673.026917 507.921570,673.302979 507.921570,673.302979
z"/>
<path fill="#BEC4CD" opacity="1.000000" stroke="none"
	d="
M518.062195,736.444641
	C515.006409,736.914001 511.920563,736.922974 508.371216,736.918701
	C507.935974,716.001404 507.964264,695.097412 507.957062,673.748169
	C507.921570,673.302979 507.966156,673.026917 508.440002,672.999390
	C511.932373,672.899536 514.950867,672.827209 517.998657,672.893066
	C518.027954,673.031189 518.064087,673.311218 518.064087,673.311218
	C518.053406,694.202209 518.042725,715.093262 518.062195,736.444641
z"/>
<path fill="#9BA3B2" opacity="1.000000" stroke="none"
	d="
M692.108215,499.064209
	C691.641052,535.534790 680.312012,568.566406 659.102417,597.925110
	C628.002380,640.974365 585.709045,665.666565 532.907654,672.111633
	C528.288879,672.675415 523.620239,672.829590 518.519409,673.242615
	C518.064087,673.311218 518.027954,673.031189 518.004883,672.450073
	C517.994141,667.904846 518.006531,663.940674 518.469482,659.938232
	C522.700073,659.596924 526.489380,659.380737 530.258362,658.976318
	C548.762573,656.991089 566.676086,652.516846 583.310791,644.171997
	C643.057312,614.200256 674.674194,565.487915 679.565002,498.946350
	C684.050781,498.991119 688.079529,499.027679 692.108215,499.064209
z"/>
<path fill="#BEC4CD" opacity="1.000000" stroke="none"
	d="
M755.450500,488.927948
	C755.949158,491.962219 755.985901,495.009827 756.027466,498.510284
	C735.249756,498.888977 714.467224,498.814850 693.220459,498.254974
	C692.798157,494.890808 692.840027,492.012451 692.881958,489.134064
	C713.584167,489.069824 734.286438,489.005585 755.450500,488.927948
z"/>
<path fill="#798499" opacity="1.000000" stroke="none"
	d="
M692.721191,489.056549
	C692.840027,492.012451 692.798157,494.890808 692.738892,498.189575
	C692.721497,498.609924 692.430603,498.858307 692.269409,498.961243
	C688.079529,499.027679 684.050781,498.991119 679.550964,498.984497
	C679.079834,499.014374 678.999695,499.000519 679.014648,498.547058
	C679.097290,495.075684 679.164978,492.057800 679.682617,489.021942
	C684.162964,488.956238 688.193237,488.908508 692.223572,488.860779
	C692.223572,488.860779 692.560364,488.979034 692.721191,489.056549
z"/>
<path fill="#9BA3B2" opacity="1.000000" stroke="none"
	d="
M692.236572,488.403870
	C688.193237,488.908508 684.162964,488.956238 679.572998,488.988892
	C679.013367,488.973846 678.788147,488.935333 678.858154,488.492615
	C677.511597,451.454468 665.337769,418.822327 642.689514,390.098419
	C630.936768,375.192841 616.615723,363.099060 600.960449,352.170593
	C603.204590,348.474884 605.403442,345.171906 607.602295,341.868896
	C612.860901,345.301788 618.437439,348.335419 623.327881,352.230530
	C663.363159,384.117493 685.969666,425.697845 691.770569,476.470184
	C692.204102,480.264496 692.102478,484.119904 692.236572,488.403870
z"/>
<path fill="#8790A3" opacity="1.000000" stroke="none"
	d="
M607.477295,341.594910
	C605.403442,345.171906 603.204590,348.474884 600.647217,352.074677
	C599.858887,352.307831 599.429138,352.244202 598.791870,351.901428
	C573.806030,336.525879 546.835693,328.859467 517.925293,327.371399
	C517.912903,322.819702 517.884644,318.719421 517.856445,314.619110
	C517.856445,314.619110 517.940613,314.336212 517.965820,314.190918
	C535.944275,315.386871 553.869080,317.318878 570.732300,323.957916
	C582.768005,328.696381 594.323120,334.655579 606.425781,340.174316
	C606.956665,340.626007 607.154480,340.973450 607.477295,341.594910
z"/>
<path fill="#6A778E" opacity="1.000000" stroke="none"
	d="
M517.474976,314.460938
	C517.884644,318.719421 517.912903,322.819702 517.951294,327.401367
	C517.961548,327.882751 517.961609,327.961609 517.543701,327.947418
	C515.733032,327.994324 514.340332,328.055420 512.544922,328.066711
	C510.790161,327.982422 509.438141,327.947906 508.082947,327.872803
	C508.079773,327.832214 508.116150,327.759399 508.116150,327.759399
	C508.118317,323.631561 508.120483,319.503693 508.138062,314.957397
	C509.498260,314.398193 510.843079,314.257507 512.590088,314.050598
	C514.359375,314.090546 515.726440,314.196655 517.474976,314.460938
z"/>
<path fill="#FFFFFF" opacity="1.000000" stroke="none"
	d="
M346.993164,489.005157
	C348.725098,402.334259 419.535583,331.109558 507.651489,327.816864
	C508.116150,327.759399 508.079773,327.832214 508.080994,328.347778
	C508.055145,349.552521 508.028046,370.241699 507.583191,391.016846
	C456.866486,394.716095 422.916626,430.189850 413.535126,468.390839
	C411.877319,475.141327 411.165527,482.124176 409.546997,488.996460
	C388.411987,488.972412 367.746887,488.951599 347.042389,488.928833
	C347.003021,488.926910 346.993164,489.005157 346.993164,489.005157
z"/>
<path fill="#798499" opacity="1.000000" stroke="none"
	d="
M346.899811,498.941223
	C342.964874,498.953369 339.029907,498.965515 334.651672,498.978516
	C334.094879,495.905945 333.981354,492.832581 333.962891,489.380005
	C338.061371,488.996857 342.064819,488.992950 346.530731,488.997070
	C346.993164,489.005157 347.003021,488.926910 347.027588,489.387756
	C347.036530,492.900726 347.020935,495.952850 346.965393,499.011505
	C346.925415,499.018066 346.899811,498.941223 346.899811,498.941223
z"/>
<path fill="#FFFFFF" opacity="1.000000" stroke="none"
	d="
M507.980621,659.976746
	C418.704224,656.316284 350.594238,586.478455 346.941406,499.390961
	C346.899811,498.941223 346.925415,499.018066 347.432159,498.968964
	C368.645966,498.946930 389.353058,498.973999 410.061523,499.424438
	C410.381592,501.951355 410.737579,504.049957 411.013275,506.159088
	C414.257690,530.978638 424.883179,552.066589 443.216034,569.118896
	C461.432739,586.063171 483.220062,594.796692 507.958923,596.959595
	C507.957001,618.212708 507.922943,639.035645 507.889282,659.905701
	C507.889618,659.952759 507.980621,659.976746 507.980621,659.976746
z"/>
<path fill="#798499" opacity="1.000000" stroke="none"
	d="
M518.018860,659.976562
	C518.006531,663.940674 517.994141,667.904846 517.975586,672.311951
	C514.950867,672.827209 511.932373,672.899536 508.472137,672.863281
	C508.019226,668.804382 508.008057,664.854004 507.988770,660.440186
	C507.980621,659.976746 507.889618,659.952759 508.353180,659.935547
	C511.914886,659.898376 515.013062,659.878540 518.110718,659.905823
	C518.110168,659.952942 518.018860,659.976562 518.018860,659.976562
z"/>
<path fill="#FFFFFF" opacity="1.000000" stroke="none"
	d="
M679.093872,498.976257
	C674.674194,565.487915 643.057312,614.200256 583.310791,644.171997
	C566.676086,652.516846 548.762573,656.991089 530.258362,658.976318
	C526.489380,659.380737 522.700073,659.596924 518.469482,659.938232
	C518.018860,659.976562 518.110168,659.952942 518.071167,659.448730
	C518.024658,638.144043 518.017151,617.343689 518.453979,596.430176
	C560.564636,592.659119 590.111572,571.740723 607.581909,533.815247
	C612.651794,522.809265 614.665771,510.991730 616.271851,498.965637
	C637.501282,498.948456 658.250488,498.974487 678.999695,499.000488
	C678.999695,499.000519 679.079834,499.014374 679.093872,498.976257
z"/>
<path fill="#BEC4CD" opacity="1.000000" stroke="none"
	d="
M679.014648,498.547028
	C658.250488,498.974487 637.501282,498.948456 616.062561,498.969177
	C615.373047,499.015930 614.958923,498.955383 615.184326,498.551392
	C615.577393,495.125061 615.744934,492.102753 616.385864,489.051910
	C637.502197,488.994049 658.145203,488.964691 678.788147,488.935333
	C678.788147,488.935333 679.013367,488.973846 679.122986,489.006897
	C679.164978,492.057800 679.097290,495.075684 679.014648,498.547028
z"/>
<path fill="#FEFFFF" opacity="1.000000" stroke="none"
	d="
M678.858154,488.492615
	C658.145203,488.964691 637.502197,488.994049 616.305542,489.048737
	C615.751770,489.074066 615.615295,489.159180 615.582336,488.744476
	C614.444763,468.388489 608.100647,450.270020 596.524292,434.008514
	C588.515625,422.758636 578.333191,413.776764 567.025269,405.724457
	C571.555908,398.015076 576.051086,390.673401 580.475098,383.289062
	C586.677612,372.936218 592.827148,362.551636 598.999329,352.180603
	C599.429138,352.244202 599.858887,352.307831 600.601990,352.467377
	C616.615723,363.099060 630.936768,375.192841 642.689514,390.098419
	C665.337769,418.822327 677.511597,451.454468 678.858154,488.492615
z"/>
<path fill="#DBDEE3" opacity="1.000000" stroke="none"
	d="
M598.791870,351.901428
	C592.827148,362.551636 586.677612,372.936218 580.475098,383.289062
	C576.051086,390.673401 571.555908,398.015076 566.780212,405.719574
	C566.468018,406.063385 565.977783,406.068451 565.743286,405.818634
	C550.927246,396.612366 534.871399,392.440826 517.979431,390.464813
	C517.962402,369.321106 517.962036,348.641357 517.961609,327.961609
	C517.961609,327.961609 517.961548,327.882751 517.935547,327.852783
	C546.835693,328.859467 573.806030,336.525879 598.791870,351.901428
z"/>
<path fill="#A5ADBA" opacity="1.000000" stroke="none"
	d="
M517.543701,327.947418
	C517.962036,348.641357 517.962402,369.321106 518.004517,390.593323
	C518.046265,391.185791 518.030273,391.447144 517.621338,391.316101
	C515.789795,391.067780 514.367249,390.950470 512.954590,390.375061
	C512.958801,369.316833 512.953186,348.716675 512.947571,328.116516
	C514.340332,328.055420 515.733032,327.994324 517.543701,327.947418
z"/>
<path fill="#BFC4CE" opacity="1.000000" stroke="none"
	d="
M512.544922,328.066711
	C512.953186,348.716675 512.958801,369.316833 512.542969,390.440857
	C510.749786,391.139984 509.378082,391.315308 507.988251,391.350861
	C507.970154,391.211090 508.000946,390.930878 508.000946,390.930878
	C508.028046,370.241699 508.055145,349.552521 508.084167,328.388367
	C509.438141,327.947906 510.790161,327.982422 512.544922,328.066711
z"/>
<path fill="#798499" opacity="1.000000" stroke="none"
	d="
M410.016846,488.999725
	C411.165527,482.124176 411.877319,475.141327 413.535126,468.390839
	C422.916626,430.189850 456.866486,394.716095 507.583191,391.016846
	C508.000946,390.930878 507.970154,391.211090 507.996338,391.777710
	C508.052094,396.435852 508.081665,400.527344 507.663452,404.695557
	C461.788147,407.896759 426.534241,443.550812 423.409576,489.059753
	C418.934113,489.037811 414.910400,489.028778 410.669617,488.998199
	C410.452545,488.976654 410.016876,488.999725 410.016846,488.999725
z"/>
<path fill="#BEC3CD" opacity="1.000000" stroke="none"
	d="
M410.060120,499.001068
	C389.353058,498.973999 368.645966,498.946930 347.472107,498.962402
	C347.020935,495.952850 347.036530,492.900726 347.066956,489.389709
	C367.746887,488.951599 388.411987,488.972412 409.546997,488.996460
	C410.016876,488.999725 410.452545,488.976654 410.448853,489.408386
	C410.583801,492.884857 410.722504,495.929565 410.660950,498.981873
	C410.460693,498.989441 410.060120,499.001068 410.060120,499.001068
z"/>
<path fill="#798499" opacity="1.000000" stroke="none"
	d="
M507.926788,596.529480
	C483.220062,594.796692 461.432739,586.063171 443.216034,569.118896
	C424.883179,552.066589 414.257690,530.978638 411.013275,506.159088
	C410.737579,504.049957 410.381592,501.951355 410.061523,499.424438
	C410.060120,499.001068 410.460693,498.989441 411.053528,498.978119
	C415.695923,498.948822 419.745483,498.930878 423.865173,499.346588
	C424.476532,503.731903 424.768158,507.736725 425.597382,511.626984
	C434.177704,551.882446 465.569611,579.044861 508.036499,583.533813
	C508.010193,587.940369 507.993042,591.889954 507.952454,596.011169
	C507.928986,596.182861 507.926788,596.529480 507.926788,596.529480
z"/>
<path fill="#BEC4CD" opacity="1.000000" stroke="none"
	d="
M518.009644,596.543274
	C518.017151,617.343689 518.024658,638.144043 518.071655,659.401611
	C515.013062,659.878540 511.914886,659.898376 508.352844,659.888428
	C507.922943,639.035645 507.957001,618.212708 507.958923,596.959595
	C507.926788,596.529480 507.928986,596.182861 508.395203,596.141174
	C511.915680,596.012817 514.969910,595.926147 518.032837,596.015686
	C518.041504,596.191895 518.009705,596.543274 518.009644,596.543274
z"/>
<path fill="#798499" opacity="1.000000" stroke="none"
	d="
M615.582336,499.012390
	C614.665771,510.991730 612.651794,522.809265 607.581909,533.815247
	C590.111572,571.740723 560.564636,592.659119 518.453979,596.430176
	C518.009705,596.543274 518.041504,596.191895 518.022705,595.565796
	C517.987671,590.985535 517.971497,587.031250 518.380432,583.017700
	C565.028503,578.827332 598.130859,545.468750 602.652344,498.922699
	C607.052795,498.939911 611.005859,498.947662 614.958923,498.955383
	C614.958923,498.955383 615.373047,499.015930 615.582336,499.012390
z"/>
<path fill="#5D6A83" opacity="1.000000" stroke="none"
	d="
M615.184326,498.551392
	C611.005859,498.947662 607.052795,498.939911 602.617737,498.977356
	C602.135742,499.022522 602.010132,498.991394 602.062134,498.539734
	C602.205200,495.060638 602.296204,492.033173 602.825439,489.006378
	C607.380859,489.057739 611.498047,489.108459 615.615295,489.159180
	C615.615295,489.159180 615.751770,489.074066 615.832153,489.077240
	C615.744934,492.102753 615.577393,495.125061 615.184326,498.551392
z"/>
<path fill="#798499" opacity="1.000000" stroke="none"
	d="
M615.582336,488.744476
	C611.498047,489.108459 607.380859,489.057739 602.689270,488.982819
	C602.114929,488.958588 601.840820,488.991821 601.916016,488.559021
	C600.633301,480.826569 600.049438,473.275146 597.771973,466.274689
	C590.974976,445.381897 578.394592,428.807281 559.079285,417.563629
	C559.082153,417.372162 559.010498,416.995941 559.302856,416.828400
	C561.722778,413.130066 563.850281,409.599243 565.977783,406.068451
	C565.977783,406.068451 566.468018,406.063385 566.713074,406.068268
	C578.333191,413.776764 588.515625,422.758636 596.524292,434.008514
	C608.100647,450.270020 614.444763,468.388489 615.582336,488.744476
z"/>
<path fill="#6A778E" opacity="1.000000" stroke="none"
	d="
M565.743286,405.818634
	C563.850281,409.599243 561.722778,413.130066 558.963074,416.738953
	C545.783447,409.674744 532.362244,405.443054 517.924805,404.237000
	C517.976501,399.679016 518.003418,395.563080 518.030273,391.447144
	C518.030273,391.447144 518.046265,391.185791 518.021179,391.057281
	C534.871399,392.440826 550.927246,396.612366 565.743286,405.818634
z"/>
<path fill="#5D6A83" opacity="1.000000" stroke="none"
	d="
M517.621338,391.316101
	C518.003418,395.563080 517.976501,399.679016 517.961548,404.298767
	C517.973450,404.802582 517.945496,404.943268 517.535889,404.908813
	C515.756165,404.906067 514.385925,404.937744 512.609131,404.896912
	C510.830841,404.851532 509.459198,404.878693 508.067596,404.831970
	C508.047607,404.758057 508.111267,404.618835 508.111267,404.618835
	C508.081665,400.527344 508.052094,396.435852 508.014435,391.917480
	C509.378082,391.315308 510.749786,391.139984 512.533081,390.898926
	C514.367249,390.950470 515.789795,391.067780 517.621338,391.316101
z"/>
<path fill="#FEFEFE" opacity="1.000000" stroke="none"
	d="
M423.861328,489.072662
	C426.534241,443.550812 461.788147,407.896759 507.663452,404.695557
	C508.111267,404.618835 508.047607,404.758057 508.065979,405.307312
	C508.033051,420.838470 507.981720,435.820312 507.538757,450.893799
	C491.230591,452.992950 473.537262,465.294495 469.411224,488.960266
	C453.983124,488.970459 439.015320,488.966461 423.982025,488.958008
	C423.916534,488.953583 423.861328,489.072662 423.861328,489.072662
z"/>
<path fill="#5D6A83" opacity="1.000000" stroke="none"
	d="
M423.795013,498.912933
	C419.745483,498.930878 415.695923,498.948822 411.253784,498.970551
	C410.722504,495.929565 410.583801,492.884857 410.665894,489.429932
	C414.910400,489.028778 418.934113,489.037811 423.409576,489.059753
	C423.861328,489.072662 423.916534,488.953583 423.933899,489.412476
	C423.964142,492.911377 423.976990,495.951416 423.926941,499.006958
	C423.864075,499.022461 423.795013,498.912933 423.795013,498.912933
z"/>
<path fill="#FEFEFE" opacity="1.000000" stroke="none"
	d="
M508.045685,583.076782
	C465.569611,579.044861 434.177704,551.882446 425.597382,511.626984
	C424.768158,507.736725 424.476532,503.731903 423.865173,499.346588
	C423.795013,498.912933 423.864075,499.022461 424.394958,498.967041
	C439.927704,498.951141 454.929565,498.990631 470.030701,499.409180
	C471.330658,503.755890 472.119019,507.908936 473.804657,511.658600
	C480.439941,526.418518 492.472839,534.121704 508.027985,537.459290
	C508.011658,552.920532 507.971832,567.912903 507.922485,582.973389
	C507.912964,583.041382 508.045685,583.076782 508.045685,583.076782
z"/>
<path fill="#5D6A83" opacity="1.000000" stroke="none"
	d="
M517.955322,583.077026
	C517.971497,587.031250 517.987671,590.985535 518.014038,595.389648
	C514.969910,595.926147 511.915680,596.012817 508.418640,595.969482
	C507.993042,591.889954 508.010193,587.940369 508.036499,583.533813
	C508.045685,583.076782 507.912964,583.041382 508.381134,583.017700
	C511.922180,582.964478 514.995056,582.934875 518.077759,582.973145
	C518.087524,583.040894 517.955383,583.077026 517.955322,583.077026
z"/>
<path fill="#FEFEFE" opacity="1.000000" stroke="none"
	d="
M602.170410,498.967865
	C598.130859,545.468750 565.028503,578.827332 518.380493,583.017700
	C517.955383,583.077026 518.087524,583.040894 518.040039,582.511963
	C517.993530,566.985535 517.994568,551.988037 518.356079,536.851074
	C539.815369,532.723633 552.083191,519.981750 556.530640,498.978699
	C571.998535,498.948761 587.004333,498.970062 602.010132,498.991394
	C602.010132,498.991394 602.135742,499.022522 602.170410,498.967865
z"/>
<path fill="#BEC3CD" opacity="1.000000" stroke="none"
	d="
M602.062134,498.539734
	C587.004333,498.970062 571.998535,498.948761 556.487854,498.522644
	C556.031616,495.061310 556.080200,492.004791 556.589233,488.962067
	C571.979980,488.981201 586.910400,488.986511 601.840820,488.991821
	C601.840820,488.991821 602.114929,488.958588 602.251099,488.982147
	C602.296204,492.033173 602.205200,495.060638 602.062134,498.539734
z"/>
<path fill="#FEFEFE" opacity="1.000000" stroke="none"
	d="
M601.916016,488.559021
	C586.910400,488.986511 571.979980,488.981201 556.481995,488.584290
	C553.993286,474.778320 546.797058,464.720673 536.090210,456.592590
	C536.741638,455.062286 537.247314,453.828613 537.927856,452.700500
	C544.961121,441.042236 552.022705,429.401031 559.076416,417.755096
	C578.394592,428.807281 590.974976,445.381897 597.771973,466.274689
	C600.049438,473.275146 600.633301,480.826569 601.916016,488.559021
z"/>
<path fill="#DBDEE3" opacity="1.000000" stroke="none"
	d="
M559.079285,417.563629
	C552.022705,429.401031 544.961121,441.042236 537.927856,452.700500
	C537.247314,453.828613 536.741638,455.062286 535.744385,456.522919
	C529.579651,454.801208 523.825439,452.803589 518.042419,450.350159
	C517.990906,434.910645 517.968201,419.926971 517.945496,404.943268
	C517.945496,404.943268 517.973450,404.802582 517.936707,404.740784
	C532.362244,405.443054 545.783447,409.674744 558.670654,416.906494
	C559.010498,416.995941 559.082153,417.372162 559.079285,417.563629
z"/>
<path fill="#A3ABB9" opacity="1.000000" stroke="none"
	d="
M517.535889,404.908813
	C517.968201,419.926971 517.990906,434.910645 517.616577,450.383911
	C515.804138,450.743256 514.388855,450.613068 512.968140,450.046661
	C512.980408,434.730103 512.998047,419.849731 513.015747,404.969421
	C514.385925,404.937744 515.756165,404.906067 517.535889,404.908813
z"/>
<path fill="#BFC4CE" opacity="1.000000" stroke="none"
	d="
M512.609070,404.896881
	C512.998047,419.849731 512.980408,434.730103 512.552673,450.121948
	C510.738525,450.689697 509.334442,450.745941 507.930389,450.802185
	C507.981720,435.820312 508.033051,420.838470 508.085968,405.381226
	C509.459198,404.878693 510.830841,404.851532 512.609070,404.896881
z"/>
<path fill="#1D3053" opacity="1.000000" stroke="none"
	d="
M507.538757,450.893799
	C509.334442,450.745941 510.738525,450.689697 512.558105,450.558167
	C514.388855,450.613068 515.804138,450.743256 517.645264,450.839722
	C523.825439,452.803589 529.579651,454.801208 535.679749,456.868530
	C546.797058,464.720673 553.993286,474.778320 556.021606,488.570496
	C556.080200,492.004791 556.031616,495.061310 556.025757,498.573883
	C552.083191,519.981750 539.815369,532.723633 517.904114,536.804138
	C514.062622,536.927856 511.033569,536.959167 508.004486,536.990479
	C492.472839,534.121704 480.439941,526.418518 473.804657,511.658600
	C472.119019,507.908936 471.330658,503.755890 470.073486,498.953064
	C469.968475,495.060638 469.920013,492.003357 469.871521,488.946106
	C473.537262,465.294495 491.230591,452.992950 507.538757,450.893799
z"/>
<path fill="#BEC3CD" opacity="1.000000" stroke="none"
	d="
M469.411224,488.960266
	C469.920013,492.003357 469.968475,495.060638 469.974182,498.574005
	C454.929565,498.990631 439.927704,498.951141 424.457825,498.951538
	C423.976990,495.951416 423.964142,492.911377 423.999390,489.416931
	C439.015320,488.966461 453.983124,488.970459 469.411224,488.960266
z"/>
<path fill="#BFC4CE" opacity="1.000000" stroke="none"
	d="
M508.027985,537.459290
	C511.033569,536.959167 514.062622,536.927856 517.543701,536.943542
	C517.994568,551.988037 517.993530,566.985535 518.030212,582.444214
	C514.995056,582.934875 511.922180,582.964478 508.390656,582.949707
	C507.971832,567.912903 508.011658,552.920532 508.027985,537.459290
z"/>
</svg>